<?xml version="1.0" encoding="UTF-8"?>
<svg width="718px" height="196px" viewBox="0 0 718 196" version="1.1" xmlns="http://www.w3.org/2000/svg" xmlns:xlink="http://www.w3.org/1999/xlink">
    <title>画板</title>
    <defs>
        <polygon id="path-1" points="0 122 480.506 122 480.506 0.308 0 0.308"></polygon>
    </defs>
    <g id="画板" stroke="none" stroke-width="1" fill="none" fill-rule="evenodd">
        <path d="M188,100 L188,161.002678 L153.662352,181 L105,181 L105,100 L188,100 Z M98,14 C138.894737,14 172,27.9972193 172,45.1049318 L172,87.8742131 L164.210526,87.8742131 L164.210526,58.7133395 C152.136842,68.8224424 127.210526,75.821052 98,75.821052 C68.7894737,75.821052 43.8631579,68.8224424 31.7894737,58.7133395 L31.7894737,80.0979802 C31.7894737,87.0965898 54.3789474,101.093809 90.2105263,103.037867 L90.2105263,111.202912 C64.5052632,110.036477 42.6947368,102.649056 31.7894737,93.3175762 L31.7894737,115.091028 C31.7894737,122.47845 54.3789474,136.475669 90.2105263,138.030916 L90.2105263,145.807149 C64.5052632,144.640714 42.6947368,137.253292 31.7894737,127.921813 L31.7894737,150.084077 C31.7894737,157.349271 54.2271575,171.402206 90.2090785,173.21789 L90.2097392,180.999995 C52.982198,179.187655 24,164.635866 24,150.084077 L24,41.2168154 C28.2842105,25.6643494 59.8315789,14 98,14 Z M180.095238,107.714286 L112.904762,107.714286 L112.904762,173.285714 L151.48,173.285714 L180.095238,156.622857 L180.095238,107.714286 Z M170.026356,142.96184 L170.026356,151.83384 L146.312539,165.025845 L122.598356,151.83384 L122.598356,142.96184 L146.312539,156.154416 L170.026356,142.96184 Z M170.026356,127.14884 L170.026356,136.17384 L146.312539,149.597274 L122.598356,136.17384 L122.598356,127.14884 L146.312539,140.340131 L170.026356,127.14884 Z M146.5,117.680254 L160.473777,125.071429 L146.5,132.678825 L132.526223,125.071429 L146.5,117.680254 Z M98,21.776233 C57.8842105,21.776233 31.7894737,35.3846406 31.7894737,45.1049318 C31.7894737,54.825223 57.4947368,68.4336307 98,68.4336307 C138.505263,68.4336307 164.210526,54.4364114 164.210526,45.1049318 C164.210526,35.7734523 138.505263,21.776233 98,21.776233 Z" id="形状结合" fill="#00A4FF" fill-rule="nonzero"></path>
        <g id="编组" transform="translate(216.000000, 44.000000)">
            <polygon id="Fill-1" fill="#000000" points="0 3.6472 0 16.4262 40.416 16.4262 40.416 120.6082 54.406 120.6082 54.406 16.4262 94.822 16.4262 94.822 3.6472"></polygon>
            <g transform="translate(0.000000, 0.692000)">
                <path d="M101.8334,69.1007 L101.8534,68.8387 C102.4194,61.3877 105.7084,54.9747 111.3654,50.2937 C115.8834,46.5567 121.8384,44.4967 128.1334,44.4967 C143.3834,44.4967 153.3174,53.8277 154.0604,68.8477 L154.0734,69.1007 L101.8334,69.1007 Z M128.5094,32.2317 C104.0284,32.2317 88.2104,49.7507 88.2114,76.8977 C89.1044,105.1397 105.1494,121.9997 131.1324,121.9997 C143.5194,121.9997 154.0034,117.8297 163.3934,109.6337 L163.3934,95.6717 C163.3934,94.8507 162.3584,94.5147 161.8624,95.1687 C155.6464,103.3587 140.7764,109.9727 131.6334,109.9727 C122.8954,109.9727 114.6794,107.0907 110.1914,102.4517 C104.7454,96.8207 101.7924,89.0807 101.8604,81.1267 L167.2994,81.1267 L167.2994,80.1267 C167.2994,61.6717 164.1544,51.2067 156.0824,42.8047 C149.3414,35.7887 140.0634,32.2317 128.5094,32.2317 L128.5094,32.2317 Z" id="Fill-2" fill="#000000"></path>
                <path d="M222.2807,32.2365 C211.5697,32.2365 202.4987,35.8155 196.4107,42.3765 L196.4107,34.1775 L183.1947,34.1775 L183.1947,120.0895 L196.7067,120.0895 L196.7067,71.1345 C196.7067,63.0495 199.1797,56.1745 203.6707,51.7795 C208.5107,47.0395 214.4907,44.8465 221.9247,45.0745 C232.5117,45.3935 243.1957,52.4015 243.1957,67.3385 L243.1957,120.0885 L256.7087,120.0885 L256.7087,66.7045 C256.7087,56.1185 253.3467,47.2995 246.9877,41.1975 C240.8767,35.3355 232.3337,32.2365 222.2807,32.2365" id="Fill-4" fill="#000000"></path>
                <path d="M311.5677,107.5822 C298.2617,107.5822 283.9407,97.7352 283.9407,76.1172 C283.9407,60.2332 292.3267,43.1382 310.7387,43.1382 C331.2697,43.1382 338.5547,60.5452 338.5547,75.4522 C338.5547,91.4192 329.2847,107.5822 311.5677,107.5822 L311.5677,107.5822 Z M338.9237,41.1372 C331.6917,33.2982 319.5987,30.4492 310.8997,30.4492 C299.2777,30.4492 288.8437,34.7842 281.5217,42.6552 C273.9917,50.7512 270.0107,61.9782 270.0107,75.1222 C270.0107,106.3242 290.7137,120.2912 311.2307,120.2912 C323.2167,120.2912 333.1097,116.0072 338.9237,108.4232 L338.9237,118.3002 L352.8717,118.3002 L352.8717,1.3572 L338.9237,1.3572 L338.9237,41.1372 Z" id="Fill-6" fill="#000000"></path>
                <path d="M450.8978,68.1154 C441.3718,65.8284 424.8998,61.9014 423.8088,53.9674 C423.4608,51.4344 424.0658,49.2594 425.5988,47.4954 C428.9228,43.6704 435.7698,41.9124 445.0148,41.9124 C454.0228,41.9124 467.9448,46.7494 473.6308,49.9944 C474.1978,50.3184 474.8958,49.9074 474.8958,49.2554 L474.8958,35.8444 C468.2418,33.4124 457.2928,29.4224 443.0448,29.4224 C430.4408,29.4224 420.3708,32.8874 414.6898,39.1814 C410.8958,43.3864 409.2168,48.7854 409.8348,54.7984 C411.5088,71.1064 430.7708,76.0214 442.8948,79.0944 C453.7108,81.7694 467.1708,85.0984 466.5118,94.3154 C465.9238,102.5364 459.2638,106.2024 444.9178,106.2024 C433.1688,106.2024 417.9868,99.6034 411.2738,92.7504 C410.7428,92.2074 409.8258,92.5894 409.8258,93.3484 L409.8258,107.9004 C416.4048,113.0714 432.9008,119.0634 445.0078,119.2774 C457.7028,119.2774 467.7008,116.3114 473.6618,110.4544 C479.6178,104.6034 480.5058,97.3624 480.5058,93.5674 C480.5058,82.9624 474.3148,74.0554 450.8978,68.1154" id="Fill-8" fill="#000000"></path>
                <mask id="mask-2" fill="white">
                    <use xlink:href="#path-1"></use>
                </mask>
                <g id="Clip-11"></g>
                <polygon id="Fill-10" fill="#000000" mask="url(#mask-2)" points="375.496 18.735 389.654 18.735 389.654 0.307 375.496 0.307"></polygon>
                <polygon id="Fill-12" fill="#000000" mask="url(#mask-2)" points="375.496 117.221 389.654 117.221 389.654 31.441 375.496 31.441"></polygon>
            </g>
        </g>
    </g>
</svg>